# xmcd
#
# Track frame offsets:
#	150
#	19413
#	32388
#	53958
#	69223
#	79788
#	94123
#	102290
#	115733
#	132775
#	141188
#	153638
#	165775
#	180405
#	204810
#	219383
#	261825
#	275830
#	305608
#
# Disc length: 4370 seconds
#
# Revision: 0
# Processed by: cddbd v1.5.2PL0 Copyright (c) Steve Scherf et al.
# Submitted via: EZCDAudioConverter 1.3.4.1
#
DISCID=fc111013
DTITLE=Beach Boys - Pet Sounds Sessions 2/3
DYEAR=1996
DGENRE=
TTITLE0=Caroline, No [Highlights From Tracking Date]
TTITLE1=Caroline, No [Stereo Backing Track]
TTITLE2=Hang On To Your Ego [Highlights From Tracking Date]
TTITLE3=Hang On To Your Ego [Stereo Backing Track]
TTITLE4=Don't Talk (Put Your Head On My Shoulder) [Brian's Instrumental Demo]
TTITLE5=Don't Talk (Put Your Head On My Shoulder) [Stereo Backing Track]
TTITLE6=Don't Talk (Put Your Head On My Shoulder) [String Overdub]
TTITLE7=I Just Wasn't Made For These Times [Highlights From Tracking Date]
TTITLE8=I Just Wasn't Made For These Times [Stereo Backing Track]
TTITLE9=That's Not Me [Highlights From Tracking Date]
TTITLE10=That's Not Me [Stereo Backing Track]
TTITLE11=Good Vibrations [Highlights From Tracking Date]
TTITLE12=Good Vibrations [Stereo Backing Track]
TTITLE13=I'm Waiting For The Day [Highlights From Tracking Date]
TTITLE14=I'm Waiting For The Day [Stereo Backing Track]
TTITLE15=God Only Knows [Highlights From Tracking Date]
TTITLE16=God Only Knows [Stereo Backing Track]
TTITLE17=Here Today [Highlights From Tracking Date]
TTITLE18=Here Today [Stereo Backing Track]
EXTD=
EXTT0=
EXTT1=
EXTT2=
EXTT3=
EXTT4=
EXTT5=
EXTT6=
EXTT7=
EXTT8=
EXTT9=
EXTT10=
EXTT11=
EXTT12=
EXTT13=
EXTT14=
EXTT15=
EXTT16=
EXTT17=
EXTT18=
PLAYORDER=
